dataset
version=1
nRows=25
nColumns=39
inDegrees=no
endheader
time	sternoclavicular_r2	sternoclavicular_r3	unrotscap_r3	unrotscap_r2	acromioclavicular_r2	acromioclavicular_r3	acromioclavicular_r1	unrothum_r1	unrothum_r3	unrothum_r2	elv_angle	shoulder_elv	shoulder1_r2	shoulder_rot	elbow_flexion	pro_sup	deviation	flexion	cmc_abduction	cmc_flexion	mp_flexion	ip_flexion	mcp2_flexion	mcp2_abduction	pm2_flexion	md2_flexion	mcp3_flexion	mcp3_abduction	pm3_flexion	md3_flexion	mcp4_flexion	mcp4_abduction	pm4_flexion	md4_flexion	mcp5_flexion	mcp5_abduction	pm5_flexion	md5_flexion
0.000000	-0.016664	-0.262399	0.106016	0.101433	0.085742	0.076939	-0.082506	-0.101131	0.073339	0.145717	0.128017	0.027437	0.146525	0.146525	1.369915	0.887603	0.000000	0.000000	0.000000	0.000000	0.000000	0.000000	0.000000	0.000000	0.000000	0.000000	0.000000	0.000000	0.000000	0.000000	0.000000	0.000000	0.000000	0.000000	0.000000	0.000000	0.000000	0.000000
0.005000	-0.016676	-0.262477	0.106087	0.101427	0.085721	0.077018	-0.082539	-0.101162	0.073400	0.145687	0.128000	0.027437	0.146525	0.146525	1.369437	0.890112	0.000000	0.000000	0.000000	0.000000	0.000000	0.000000	0.000000	0.000000	0.000000	0.000000	0.000000	0.000000	0.000000	0.000000	0.000000	0.000000	0.000000	0.000000	0.000000	0.000000	0.000000	0.000000
0.010000	-0.016688	-0.262558	0.106165	0.101426	0.085703	0.077100	-0.082578	-0.101196	0.073465	0.145660	0.127987	0.027437	0.146525	0.146525	1.368978	0.892599	0.000000	0.000000	0.000000	0.000000	0.000000	0.000000	0.000000	0.000000	0.000000	0.000000	0.000000	0.000000	0.000000	0.000000	0.000000	0.000000	0.000000	0.000000	0.000000	0.000000	0.000000	0.000000
0.015000	-0.016701	-0.262641	0.106248	0.101429	0.085689	0.077185	-0.082621	-0.101239	0.073536	0.145637	0.127977	0.027437	0.146525	0.146525	1.368542	0.895065	0.000000	0.000000	0.000000	0.000000	0.000000	0.000000	0.000000	0.000000	0.000000	0.000000	0.000000	0.000000	0.000000	0.000000	0.000000	0.000000	0.000000	0.000000	0.000000	0.000000	0.000000	0.000000
0.020000	-0.016714	-0.262726	0.106336	0.101435	0.085677	0.077272	-0.082669	-0.101293	0.073616	0.145618	0.127972	0.027437	0.146525	0.146525	1.368133	0.897508	0.000000	0.000000	0.000000	0.000000	0.000000	0.000000	0.000000	0.000000	0.000000	0.000000	0.000000	0.000000	0.000000	0.000000	0.000000	0.000000	0.000000	0.000000	0.000000	0.000000	0.000000	0.000000
0.025000	-0.016727	-0.262812	0.106428	0.101444	0.085669	0.077361	-0.082720	-0.101358	0.073706	0.145604	0.127972	0.027437	0.146525	0.146525	1.367756	0.899929	0.000000	0.000000	0.000000	0.000000	0.000000	0.000000	0.000000	0.000000	0.000000	0.000000	0.000000	0.000000	0.000000	0.000000	0.000000	0.000000	0.000000	0.000000	0.000000	0.000000	0.000000	0.000000
0.030000	-0.016740	-0.262900	0.106522	0.101458	0.085664	0.077451	-0.082775	-0.101437	0.073807	0.145594	0.127976	0.027437	0.146525	0.146525	1.367413	0.902328	0.000000	0.000000	0.000000	0.000000	0.000000	0.000000	0.000000	0.000000	0.000000	0.000000	0.000000	0.000000	0.000000	0.000000	0.000000	0.000000	0.000000	0.000000	0.000000	0.000000	0.000000	0.000000
0.035000	-0.016754	-0.262990	0.106620	0.101475	0.085663	0.077542	-0.082833	-0.101528	0.073917	0.145590	0.127987	0.027437	0.146525	0.146525	1.367108	0.904704	0.000000	0.000000	0.000000	0.000000	0.000000	0.000000	0.000000	0.000000	0.000000	0.000000	0.000000	0.000000	0.000000	0.000000	0.000000	0.000000	0.000000	0.000000	0.000000	0.000000	0.000000	0.000000
0.040000	-0.016768	-0.263082	0.106722	0.101496	0.085666	0.077634	-0.082895	-0.101634	0.074039	0.145592	0.128003	0.027437	0.146525	0.146525	1.366846	0.907057	0.000000	0.000000	0.000000	0.000000	0.000000	0.000000	0.000000	0.000000	0.000000	0.000000	0.000000	0.000000	0.000000	0.000000	0.000000	0.000000	0.000000	0.000000	0.000000	0.000000	0.000000	0.000000
0.045000	-0.016783	-0.263175	0.106826	0.101522	0.085674	0.077726	-0.082960	-0.101754	0.074172	0.145599	0.128025	0.027437	0.146525	0.146525	1.366631	0.909386	0.000000	0.000000	0.000000	0.000000	0.000000	0.000000	0.000000	0.000000	0.000000	0.000000	0.000000	0.000000	0.000000	0.000000	0.000000	0.000000	0.000000	0.000000	0.000000	0.000000	0.000000	0.000000
0.050000	-0.016798	-0.263270	0.106933	0.101552	0.085685	0.077818	-0.083028	-0.101888	0.074316	0.145613	0.128054	0.027437	0.146525	0.146525	1.366467	0.911693	0.000000	0.000000	0.000000	0.000000	0.000000	0.000000	0.000000	0.000000	0.000000	0.000000	0.000000	0.000000	0.000000	0.000000	0.000000	0.000000	0.000000	0.000000	0.000000	0.000000	0.000000	0.000000
0.055000	-0.016813	-0.263367	0.107043	0.101587	0.085702	0.077911	-0.083100	-0.102037	0.074471	0.145634	0.128089	0.027437	0.146525	0.146525	1.366357	0.913976	0.000000	0.000000	0.000000	0.000000	0.000000	0.000000	0.000000	0.000000	0.000000	0.000000	0.000000	0.000000	0.000000	0.000000	0.000000	0.000000	0.000000	0.000000	0.000000	0.000000	0.000000	0.000000
0.060000	-0.016828	-0.263465	0.107156	0.101627	0.085724	0.078004	-0.083176	-0.102201	0.074638	0.145662	0.128132	0.027437	0.146525	0.146525	1.366306	0.916235	0.000000	0.000000	0.000000	0.000000	0.000000	0.000000	0.000000	0.000000	0.000000	0.000000	0.000000	0.000000	0.000000	0.000000	0.000000	0.000000	0.000000	0.000000	0.000000	0.000000	0.000000	0.000000
0.065000	-0.016843	-0.263565	0.107271	0.101672	0.085751	0.078097	-0.083256	-0.102380	0.074815	0.145697	0.128182	0.027437	0.146525	0.146525	1.366318	0.918472	0.000000	0.000000	0.000000	0.000000	0.000000	0.000000	0.000000	0.000000	0.000000	0.000000	0.000000	0.000000	0.000000	0.000000	0.000000	0.000000	0.000000	0.000000	0.000000	0.000000	0.000000	0.000000
0.070000	-0.016859	-0.263667	0.107390	0.101723	0.085785	0.078189	-0.083339	-0.102573	0.075004	0.145740	0.128239	0.027437	0.146525	0.146525	1.366397	0.920685	0.000000	0.000000	0.000000	0.000000	0.000000	0.000000	0.000000	0.000000	0.000000	0.000000	0.000000	0.000000	0.000000	0.000000	0.000000	0.000000	0.000000	0.000000	0.000000	0.000000	0.000000	0.000000
0.075000	-0.016875	-0.263771	0.107511	0.101780	0.085824	0.078281	-0.083427	-0.102782	0.075204	0.145791	0.128305	0.027437	0.146525	0.146525	1.366548	0.922874	0.000000	0.000000	0.000000	0.000000	0.000000	0.000000	0.000000	0.000000	0.000000	0.000000	0.000000	0.000000	0.000000	0.000000	0.000000	0.000000	0.000000	0.000000	0.000000	0.000000	0.000000	0.000000
0.080000	-0.016892	-0.263877	0.107635	0.101842	0.085870	0.078373	-0.083518	-0.103004	0.075415	0.145850	0.128379	0.027437	0.146525	0.146525	1.366773	0.925041	0.000000	0.000000	0.000000	0.000000	0.000000	0.000000	0.000000	0.000000	0.000000	0.000000	0.000000	0.000000	0.000000	0.000000	0.000000	0.000000	0.000000	0.000000	0.000000	0.000000	0.000000	0.000000
0.085000	-0.016908	-0.263984	0.107762	0.101912	0.085922	0.078463	-0.083614	-0.103242	0.075637	0.145919	0.128461	0.027437	0.146525	0.146525	1.367078	0.927184	0.000000	0.000000	0.000000	0.000000	0.000000	0.000000	0.000000	0.000000	0.000000	0.000000	0.000000	0.000000	0.000000	0.000000	0.000000	0.000000	0.000000	0.000000	0.000000	0.000000	0.000000	0.000000
0.090000	-0.016925	-0.264094	0.107891	0.101988	0.085982	0.078553	-0.083714	-0.103494	0.075869	0.145996	0.128553	0.027437	0.146525	0.146525	1.367467	0.929305	0.000000	0.000000	0.000000	0.000000	0.000000	0.000000	0.000000	0.000000	0.000000	0.000000	0.000000	0.000000	0.000000	0.000000	0.000000	0.000000	0.000000	0.000000	0.000000	0.000000	0.000000	0.000000
0.095000	-0.016943	-0.264205	0.108022	0.102071	0.086049	0.078641	-0.083817	-0.103760	0.076112	0.146083	0.128653	0.027437	0.146525	0.146525	1.367942	0.931403	0.000000	0.000000	0.000000	0.000000	0.000000	0.000000	0.000000	0.000000	0.000000	0.000000	0.000000	0.000000	0.000000	0.000000	0.000000	0.000000	0.000000	0.000000	0.000000	0.000000	0.000000	0.000000
0.100000	-0.016960	-0.264318	0.108156	0.102162	0.086123	0.078728	-0.083925	-0.104040	0.076365	0.146179	0.128763	0.027437	0.146525	0.146525	1.368509	0.933478	0.000000	0.000000	0.000000	0.000000	0.000000	0.000000	0.000000	0.000000	0.000000	0.000000	0.000000	0.000000	0.000000	0.000000	0.000000	0.000000	0.000000	0.000000	0.000000	0.000000	0.000000	0.000000
0.105000	-0.016978	-0.264433	0.108292	0.102260	0.086206	0.078813	-0.084037	-0.104333	0.076628	0.146286	0.128883	0.027437	0.146525	0.146525	1.369170	0.935532	0.000000	0.000000	0.000000	0.000000	0.000000	0.000000	0.000000	0.000000	0.000000	0.000000	0.000000	0.000000	0.000000	0.000000	0.000000	0.000000	0.000000	0.000000	0.000000	0.000000	0.000000	0.000000
0.110000	-0.016997	-0.264550	0.108430	0.102366	0.086297	0.078897	-0.084152	-0.104639	0.076901	0.146402	0.129013	0.027437	0.146525	0.146525	1.369930	0.937564	0.000000	0.000000	0.000000	0.000000	0.000000	0.000000	0.000000	0.000000	0.000000	0.000000	0.000000	0.000000	0.000000	0.000000	0.000000	0.000000	0.000000	0.000000	0.000000	0.000000	0.000000	0.000000
0.115000	-0.017015	-0.264668	0.108570	0.102481	0.086398	0.078979	-0.084272	-0.104957	0.077183	0.146530	0.129153	0.027437	0.146525	0.146525	1.370792	0.939575	0.000000	0.000000	0.000000	0.000000	0.000000	0.000000	0.000000	0.000000	0.000000	0.000000	0.000000	0.000000	0.000000	0.000000	0.000000	0.000000	0.000000	0.000000	0.000000	0.000000	0.000000	0.000000
0.120000	-0.017034	-0.264788	0.108712	0.102604	0.086507	0.079059	-0.084396	-0.105287	0.077474	0.146668	0.129304	0.027437	0.146525	0.146525	1.371759	0.941566	0.000000	0.000000	0.000000	0.000000	0.000000	0.000000	0.000000	0.000000	0.000000	0.000000	0.000000	0.000000	0.000000	0.000000	0.000000	0.000000	0.000000	0.000000	0.000000	0.000000	0.000000	0.000000
